<svg width="23px" height="21px" viewBox="0 0 23 21" version="1.1" xmlns="http://www.w3.org/2000/svg" xmlns:xlink="http://www.w3.org/1999/xlink">
  <path d="M0.263859952,10.5557351 C0.118134124,10.469744 2.22044605e-16,10.2577012 2.22044605e-16,10.0915628 L2.22044605e-16,9.07003456 L11.3980783,15.5858444 C11.4985354,15.6432716 11.652898,15.6475526 11.7593534,15.5858438 L23,9.06999969 L23,10.0915547 C23,10.2619234 22.8870757,10.4677263 22.7402585,10.5557351 L11.7696722,17.1319934 C11.6706936,17.1913256 11.5164412,17.1957489 11.4266092,17.1427401 L0.263859952,10.5557351 Z"></path>
  <path d="M0.263859952,13.8557353 C0.118134124,13.7697442 2.22044605e-16,13.5577014 2.22044605e-16,13.391563 L2.22044605e-16,12.3700347 L11.3980783,18.8858446 C11.4985354,18.9432718 11.652898,18.9475528 11.7593534,18.885844 L23,12.3699999 L23,13.3915549 C23,13.5619236 22.8870757,13.7677265 22.7402585,13.8557353 L11.7696722,20.4319936 C11.6706936,20.4913258 11.5164412,20.4957491 11.4266092,20.4427403 L0.263859952,13.8557353 Z"></path>
  <path d="M0.36730883,7.51421034 C-0.112558438,7.23021981 -0.0996133555,6.78988865 0.386772359,6.53564297 L10.6910283,1.14935703 C11.181645,0.892899723 11.9759892,0.895111351 12.4559209,1.14935703 L22.6234475,6.53564297 C23.1075541,6.79210028 23.1169008,7.22979525 22.642743,7.51421034 L12.4372569,13.6357893 C11.963807,13.9197798 11.191708,13.9202044 10.7111234,13.6357893 L0.36730883,7.51421034 Z"></path>
</svg>
