<svg width="20px" height="20px" viewBox="0 0 20 20" version="1.1" xmlns="http://www.w3.org/2000/svg" xmlns:xlink="http://www.w3.org/1999/xlink">
  <path d="M19.1247082,1.67327575 C18.6917082,1.32927575 18.0637082,1.40227575 17.7197082,1.83427575 L9.415,12.5 L6.09667726,7.77768018 C5.70567726,7.38668018 5.07267726,7.38668018 4.68267726,7.77768018 C4.29167726,8.16968018 4.29167726,8.80268018 4.68267726,9.19068018 L8.794,14.706 C8.996,14.908 9.271,15.014 9.556,14.998 C9.84,14.982 10.108,14.843 10.284,14.621 L19.2857082,3.07727575 C19.6287082,2.64627575 19.5577082,2.01727575 19.1247082,1.67327575 Z" id="Shape"></path>
  <path d="M18.551,7.019 C18.013,7.142 17.676,7.678 17.799,8.216 C17.933,8.801 18.001,9.402 18.001,9.999 C18.001,14.41 14.412,17.999 10.001,17.999 C5.59,17.999 2.001,14.41 2.001,9.999 C2.001,5.588 5.59,1.999 10.001,1.999 C11.248,1.999 12.445,2.28 13.556,2.831 C14.05,3.078 14.651,2.875 14.897,2.38 C15.143,1.886 14.941,1.285 14.446,1.04 C13.056,0.35 11.561,0 10.002,0 C4.488,0 0.002,4.486 0.002,10 C0.002,15.514 4.488,20 10.002,20 C15.516,20 20.002,15.514 20.002,10 C20.002,9.252 19.917,8.502 19.75,7.771 C19.626,7.233 19.091,6.894 18.551,7.019 Z" id="Shape"></path>
</svg>
