<svg width="24px" height="24px" viewBox="0 0 24 24" version="1.1" xmlns="http://www.w3.org/2000/svg" xmlns:xlink="http://www.w3.org/1999/xlink">
  <path d="M12,24 C5.372583,24 0,18.627417 0,12 C0,5.372583 5.372583,0 12,0 C18.627417,0 24,5.372583 24,12 C24,18.627417 18.627417,24 12,24 Z M17.5822215,7.21709053 C17.1492215,6.87309053 16.5212215,6.94609053 16.1772215,7.37809053 L11.3407188,15.002747 L7.70725,11.4726841 C7.31625,11.0816841 6.68325,11.0816841 6.29325,11.4726841 C5.90225,11.8646841 5.90225,12.4976841 6.29325,12.8856841 L10.7197188,17.208747 C10.9217188,17.410747 11.1967188,17.516747 11.4817188,17.500747 C11.7657188,17.484747 12.0337188,17.345747 12.2097188,17.123747 L17.7432215,8.62109053 C18.0862215,8.19009053 18.0152215,7.56109053 17.5822215,7.21709053 Z" fill="#1B61C2"></path>
</svg>
