<?xml version="1.0" encoding="utf-8"?>
<!-- Generator: Adobe Illustrator 18.1.0, SVG Export Plug-In . SVG Version: 6.00 Build 0)  -->
<svg version="1.1" id="Layer_1" xmlns="http://www.w3.org/2000/svg" xmlns:xlink="http://www.w3.org/1999/xlink" x="0px" y="0px"
	 width="24px" height="24px" viewBox="0 0 24 24" enable-background="new 0 0 24 24" xml:space="preserve">
<g>
	<path d="M19.3779,24.0391H4.6035c-0.2622,0-0.48-0.2021-0.4985-0.4639L2.7275,4.5664C2.7173,4.4277,2.7651,4.2915,2.8599,4.1899
		c0.0947-0.1021,0.2275-0.1597,0.3662-0.1597h17.5288c0.1387,0,0.2715,0.0576,0.3662,0.1597
		c0.0947,0.1016,0.1426,0.2378,0.1328,0.3765l-1.377,19.0088C19.8574,23.8369,19.6396,24.0391,19.3779,24.0391z M5.0684,23.0391
		h13.8447l1.3047-18.0088H3.7637L5.0684,23.0391z"/>
	<path d="M22.8008,5.0303H1.1802c-0.2764,0-0.5-0.2236-0.5-0.5s0.2236-0.5,0.5-0.5h21.6206c0.2764,0,0.5,0.2236,0.5,0.5
		S23.0771,5.0303,22.8008,5.0303z"/>
	<path d="M15.2178,5.0303H8.7632c-0.1602,0-0.3105-0.0767-0.4048-0.2065C8.2646,4.6943,8.2383,4.5273,8.2881,4.375l0.9917-3.0381
		c0.0669-0.2056,0.2588-0.3447,0.4751-0.3447h4.4717c0.2168,0,0.4082,0.1392,0.4756,0.3447l0.9912,3.0381
		c0.0498,0.1523,0.0234,0.3193-0.0713,0.4487C15.5283,4.9536,15.3779,5.0303,15.2178,5.0303z M9.4521,4.0303h5.0762l-0.665-2.0381
		h-3.7456L9.4521,4.0303z"/>
	<path d="M12,20.9111c-0.2764,0-0.5-0.2236-0.5-0.5V7.5835c0-0.2764,0.2236-0.5,0.5-0.5s0.5,0.2236,0.5,0.5v12.8276
		C12.5,20.6875,12.2764,20.9111,12,20.9111z"/>
	<path d="M15.7012,20.9111c-0.0117,0-0.0225,0-0.0342-0.001c-0.2754-0.0186-0.4844-0.2568-0.4658-0.5322l0.8535-12.8276
		c0.0186-0.2759,0.2617-0.4751,0.5322-0.4658c0.2754,0.0186,0.4844,0.2568,0.4658,0.5322l-0.8535,12.8276
		C16.1816,20.709,15.9619,20.9111,15.7012,20.9111z"/>
	<path d="M8.2993,20.9111c-0.2612,0-0.481-0.2021-0.4985-0.4668L6.9468,7.6167C6.9287,7.3413,7.1372,7.103,7.4126,7.0845
		C7.688,7.0718,7.9263,7.2749,7.9448,7.5503l0.854,12.8276c0.0181,0.2754-0.1904,0.5137-0.4658,0.5322
		C8.3218,20.9111,8.3105,20.9111,8.2993,20.9111z"/>
</g>
<rect fill="none" width="24" height="24"/>
</svg>
