<?xml version="1.0" encoding="UTF-8"?>
<svg width="21px" height="25px" viewBox="0 0 21 25" version="1.1" xmlns="http://www.w3.org/2000/svg" xmlns:xlink="http://www.w3.org/1999/xlink">
  <path d="M20.2046509,4 L15,4 L15,2.29059422 C15,1.18544845 14.1041422,0.0528968231 13.0026083,0.0528968231 L7.9973917,0.0528968231 C6.89426273,0.0528968231 6,1.1896497 6,2.29059422 L6,4 L0.944465299,4 C0.668465299,4 0.444465299,4.224 0.444465299,4.5 C0.444465299,4.776 0.668465299,6.01637 0.944465299,6.01637 L2,6.01637 L2.90046024,23.0092049 C2.95543453,24.1086907 3.89339733,25 4.99188419,25 L16.0081158,25 C17.1082031,25 18.0442591,24.1148189 18.0995398,23.0092049 L19,6.01637 L20.2046509,6.01637 C20.4806509,6.01637 20.7046509,4.776 20.7046509,4.5 C20.7046509,4.224 20.4806509,4 20.2046509,4 Z M7.4444653,2.75 C7.4444653,2.05964406 7.81979217,1.5 8.30411901,1.5 L12.5848116,1.5 C13.0595852,1.5 13.4444653,2.05483102 13.4444653,2.75 L13.4444653,4 L7.4444653,4 L7.4444653,2.75 Z M16.6647857,21.8690729 C16.6105961,22.8986755 15.7326936,23.0504107 14.6974239,23.0504107 L6.30257612,23.0504107 C5.27022183,23.0504107 4.38956858,22.901803 4.33521436,21.8690729 L3.5,6 L6.76666667,6 L14.2333333,6 L17.5,6 L16.6647857,21.8690729 Z"></path>
  <path d="M6.5,7.5 C5.948,7.5 5.5,7.724 5.5,8 L5.5,20 C5.5,20.276 5.948,20.5 6.5,20.5 C7.052,20.5 7.5,20.276 7.5,20 L7.5,8 C7.5,7.724 7.052,7.5 6.5,7.5 Z"></path>
  <path d="M10.5,7.5 C9.948,7.5 9.5,7.724 9.5,8 L9.5,20 C9.5,20.276 9.948,20.5 10.5,20.5 C11.052,20.5 11.5,20.276 11.5,20 L11.5,8 C11.5,7.724 11.052,7.5 10.5,7.5 Z"></path>
  <path d="M13.5,8 L13.5,20 C13.5,20.276 13.948,20.5 14.5,20.5 C15.052,20.5 15.5,20.276 15.5,20 L15.5,8 C15.5,7.724 15.052,7.5 14.5,7.5 C13.948,7.5 13.5,7.724 13.5,8 Z"></path>
</svg>
