<?xml version="1.0" encoding="UTF-8"?>
<svg width="21px" height="24px" viewBox="0 0 21 24" version="1.1" xmlns="http://www.w3.org/2000/svg" xmlns:xlink="http://www.w3.org/1999/xlink">
  <path d="M20.2046509,3 L15,3 L15,2.00104344 C15,0.895897664 14.1041422,0 13.0026083,0 L7.9973917,0 C6.89426273,0 6,0.90009892 6,2.00104344 L6,3 L0.944465299,3 C0.668465299,3 0.444465299,3.224 0.444465299,3.5 C0.444465299,3.776 0.668465299,4 0.944465299,4 L2,4 L2.90046024,22.0092049 C2.95543453,23.1086907 3.89339733,24 4.99188419,24 L16.0081158,24 C17.1082031,24 18.0442591,23.1148189 18.0995398,22.0092049 L19,4 L20.2046509,4 C20.4806509,4 20.7046509,3.776 20.7046509,3.5 C20.7046509,3.224 20.4806509,3 20.2046509,3 Z M7,2 C7,1.44771525 7.43788135,1 8.00292933,1 L12.9970707,1 C13.5509732,1 14,1.44386482 14,2 L14,3 L7,3 L7,2 Z M17.1051275,21.0025781 C17.0470672,22.1057238 16.1064574,23 14.9972399,23 L6.00276013,23 C4.89666625,23 3.95310919,22.1090746 3.89487253,21.0025781 L3,4 L6.5,4 L14.5,4 L18,4 L17.1051275,21.0025781 Z" id="Shape"></path>
  <path d="M6.5,6.5 C6.224,6.5 6,6.724 6,7 L6,19 C6,19.276 6.224,19.5 6.5,19.5 C6.776,19.5 7,19.276 7,19 L7,7 C7,6.724 6.776,6.5 6.5,6.5 Z" id="Shape"></path>
  <path d="M10.5,6.5 C10.224,6.5 10,6.724 10,7 L10,19 C10,19.276 10.224,19.5 10.5,19.5 C10.776,19.5 11,19.276 11,19 L11,7 C11,6.724 10.776,6.5 10.5,6.5 Z" id="Shape"></path>
  <path d="M14,7 L14,19 C14,19.276 14.224,19.5 14.5,19.5 C14.776,19.5 15,19.276 15,19 L15,7 C15,6.724 14.776,6.5 14.5,6.5 C14.224,6.5 14,6.724 14,7 Z" id="Shape"></path>
</svg>
