<svg width="19px" height="21px" viewBox="0 0 19 21" version="1.1" xmlns="http://www.w3.org/2000/svg" xmlns:xlink="http://www.w3.org/1999/xlink">
  <path d="M11.8,7.5 L18.813,1.891 C18.979,1.758 19.042,1.536 18.972,1.335 C18.901,1.135 18.712,1 18.5,1 L0.5,1 C0.224,1 0,1.224 0,1.5 L0,13.5 C0,13.776 0.224,14 0.5,14 L18.5,14 C18.712,14 18.901,13.866 18.972,13.666 C19.042,13.465 18.979,13.242 18.813,13.109 L11.8,7.5 Z M1,13 L1,2 L17.074,2 L10.686,7.109 C10.568,7.205 10.498,7.348 10.498,7.5 C10.498,7.652 10.567,7.795 10.686,7.891 L17.074,13 L1,13 Z" id="Shape"></path>
  <path d="M0.5,0 C0.224,0 0,0.196 0,0.4375 L0,20.5625 C0,20.804 0.224,21 0.5,21 C0.776,21 1,20.804 1,20.5625 L1,0.4375 C1,0.196 0.776,0 0.5,0 Z" id="Shape"></path>
</svg>
