<svg width="18px" height="18px" viewBox="0 0 18 18" version="1.1" xmlns="http://www.w3.org/2000/svg" xmlns:xlink="http://www.w3.org/1999/xlink">
  <path d="M10.6845246,7.5 L17.6975246,2.91956944 C17.8639049,2.78696082 17.9281434,2.56358581 17.8576268,2.36285006 C17.7871102,2.16211432 17.5972853,2.02798941 17,2.02856757 L2,2.02856757 C1.22385763,2.02856944 1,2.25242707 1,2.52856944 L1,12.0285676 C1,12.7856373 1.22385763,13.0094949 2,13.0285676 L17,13.0285676 C17.596665,13.0088671 17.7854135,12.8746967 17.8557246,12.674546 C17.9260356,12.4743954 17.8626655,12.251658 17.6975246,12.1184949 L10.6845246,7.5 Z M2,11.0285694 L2,4.02856944 L13,4.02856944 L7.71852464,7.18 C7.62305294,7.25883701 7.56776884,7.37618514 7.56776884,7.5 C7.56776884,7.62381486 7.62305294,7.74116299 7.71852464,7.82 L13,11.0285694 L2,11.0285694 Z"></path>
  <path d="M1,0.982294639 C0.448,0.982294639 0,1.20629464 0,1.48229464 L0,17.9822946 C0,18.0232392 0.448,18.2472392 1,17.9822946 C1.552,18.2472392 2,18.0232392 2,17.9822946 L2,1.48229464 C2,1.20629464 1.552,0.982294639 1,0.982294639 Z"></path>
</svg>
