<svg width="6" height="10" viewBox="0 0 6 10" xmlns="http://www.w3.org/2000/svg">
    <path d="M0 .405C0 .18.185 0 .405 0h1.19C1.82 0 2 .185 2 .405v1.19A.407.407 0 0 1 1.595 2H.405A.407.407 0 0 1 0 1.595V.405zm4 0C4 .18 4.185 0 4.405 0h1.19C5.82 0 6 .185 6 .405v1.19A.407.407 0 0 1 5.595 2h-1.19A.407.407 0 0 1 4 1.595V.405zm0 4C4 4.18 4.185 4 4.405 4h1.19C5.82 4 6 4.185 6 4.405v1.19A.407.407 0 0 1 5.595 6h-1.19A.407.407 0 0 1 4 5.595v-1.19zm0 4C4 8.18 4.185 8 4.405 8h1.19C5.82 8 6 8.185 6 8.405v1.19a.407.407 0 0 1-.405.405h-1.19A.407.407 0 0 1 4 9.595v-1.19zm-4 0C0 8.18.185 8 .405 8h1.19C1.82 8 2 8.185 2 8.405v1.19a.407.407 0 0 1-.405.405H.405A.407.407 0 0 1 0 9.595v-1.19zm0-4C0 4.18.185 4 .405 4h1.19C1.82 4 2 4.185 2 4.405v1.19A.407.407 0 0 1 1.595 6H.405A.407.407 0 0 1 0 5.595v-1.19z"></path>
</svg>
