<?xml version="1.0" encoding="UTF-8"?>
<svg width="25px" height="17px" viewBox="0 0 25 17" version="1.1" xmlns="http://www.w3.org/2000/svg" xmlns:xlink="http://www.w3.org/1999/xlink">
  <path d="M11.3588931,1 L17.8565,1 L17,1 C16.724,1 16.724,0 17,0 L20,0 C20.178,0 20.342,0.095 20.432,0.248 L23.932,6.248 C23.977,6.325 24,6.412 24,6.5 L24.0043545,16.4888159 C24.0043545,16.7648159 23.7803545,16.9888159 23.5043545,16.9888159 L12.3192808,16.9888159 L0.504354498,16.9888159 C0.228354498,16.9888159 0.00435449821,16.7648159 0.00435449821,16.4888159 L0,6.5 C0,6.412 0.023,6.325 0.068,6.248 L3.568,0.248 C3.658,0.095 3.822,0 4,0 L17.7711182,0 C18.0471182,0 17.7067861,1 17.4307861,1 L11.3588931,1 Z M4.7038,2 L2.371,6 L8,6 C8.276,6 8.5,6.224 8.5,6.5 L8.5,7.5 C8.5,8.327 9.173,9 10,9 L14.5,9 C15.327,9 16,8.327 16,7.5 L16,6.5 C16,6.224 16.224,6 16.5,6 L21.63,6 L19.2964,2 L4.7038,2 Z" id="Combined-Shape"></path>
</svg>
