<svg width="24" height="17" viewBox="0 0 24 17" xmlns="http://www.w3.org/2000/svg">
    <path d="M23.501 6.053a.497.497 0 0 1-.379-.174L18.935 1.01H5.065L.879 5.88a.5.5 0 0 1-.757-.652L4.458.184a.5.5 0 0 1 .378-.174h14.328a.5.5 0 0 1 .379.174l4.337 5.042a.5.5 0 0 1-.379.826z"></path>
    <path d="M21.643 16.013H2.358A2.36 2.36 0 0 1 0 13.654V5.553a.5.5 0 0 1 .5-.5h7.065a.5.5 0 0 1 .5.5v2.29c0 .652.53 1.181 1.18 1.181h5.56c.652 0 1.181-.529 1.181-1.18V5.553a.5.5 0 0 1 .5-.5h7.015a.5.5 0 0 1 .5.5v8.101a2.36 2.36 0 0 1-2.358 2.359z"></path>
</svg>
