<?xml version="1.0" encoding="UTF-8"?>
<svg width="24px" height="11px" viewBox="0 0 24 11" version="1.1" xmlns="http://www.w3.org/2000/svg" xmlns:xlink="http://www.w3.org/1999/xlink">
  <path d="M21.5,0 L2.5,0 C1.122,0 0,1.121 0,2.5 L0,8.5 C0,9.879 1.122,11 2.5,11 L21.5,11 C22.878,11 24,9.879 24,8.5 L24,2.5 C24,1.121 22.878,0 21.5,0 Z M23,8.5 C23,9.327 22.327,10 21.5,10 L2.5,10 C1.673,10 1,9.327 1,8.5 L1,2.5 C1,1.673 1.673,1 2.5,1 L21.5,1 C22.327,1 23,1.673 23,2.5 L23,8.5 Z M10,2 L10,3 L11,3 L11,2 L10,2 Z M13,2 L13,3 L14,3 L14,2 L13,2 Z M16,2 L16,3 L17,3 L17,2 L16,2 Z M19,2 L19,3 L20,3 L20,2 L19,2 Z M7,2 L7,3 L8,3 L8,2 L7,2 Z M4,2 L4,3 L5,3 L5,2 L4,2 Z M10,4 L10,5 L11,5 L11,4 L10,4 Z M13,4 L13,5 L14,5 L14,4 L13,4 Z M16,4 L16,5 L17,5 L17,4 L16,4 Z M19,4 L19,5 L20,5 L20,4 L19,4 Z M7,4 L7,5 L8,5 L8,4 L7,4 Z M4,4 L4,5 L5,5 L5,4 L4,4 Z M10,6 L10,7 L11,7 L11,6 L10,6 Z M13,6 L13,7 L14,7 L14,6 L13,6 Z M16,6 L16,7 L17,7 L17,6 L16,6 Z M19,6 L19,7 L20,7 L20,6 L19,6 Z M7,6 L7,7 L8,7 L8,6 L7,6 Z M4,6 L4,7 L5,7 L5,6 L4,6 Z M5,8 L5,9 L19,9 L19,8 L5,8 Z" id="Combined-Shape"></path>
</svg>
