<?xml version="1.0" encoding="UTF-8"?>
<svg width="18px" height="24px" viewBox="0 0 18 24" version="1.1" xmlns="http://www.w3.org/2000/svg" xmlns:xlink="http://www.w3.org/1999/xlink">
  <title>logbook</title>
  <g id="logbook">
    <path d="M17.5,4 L17,4 L17,0.5 C17,0.224 16.775,0 16.5,0 L2.5,0 C1.121,0 0,1.122 0,2.5 L0,21.5 C0,22.878 1.121,24 2.5,24 L17.5,24 C17.775,24 18,23.776 18,23.5 L18,4.5 C18,4.224 17.775,4 17.5,4 Z M16,4 L15,4 L15,2.5 C15,2.224 14.775,2 14.5,2 L2.5,2 C2.224,2 2,2.224 2,2.5 C2,2.776 2.224,3 2.5,3 L14,3 L14,4 L2.5,4 C1.673,4 1,3.327 1,2.5 C1,1.673 1.673,1 2.5,1 L16,1 L16,4 Z" id="Shape" fill="#000000" fill-rule="nonzero"></path>
    <polyline id="Path-2" stroke="#FFFFFF" stroke-width="2" points="5 12.961888 7.9335062 17.6245247 13.1742679 10"></polyline>
  </g>
</svg>
