<svg width="18px" height="18px" viewBox="0 0 18 18" version="1.1" xmlns="http://www.w3.org/2000/svg" xmlns:xlink="http://www.w3.org/1999/xlink">
  <path d="M0,1.99508929 C0,0.893231902 0.892622799,0 1.99508929,0 L16.0049107,0 C17.1067681,0 18,0.892622799 18,1.99508929 L18,16.0049107 C18,17.1067681 17.1073772,18 16.0049107,18 L1.99508929,18 C0.893231902,18 0,17.1073772 0,16.0049107 L0,1.99508929 Z M2,3.00684547 L2,14.9931545 C2,15.5500512 2.45078007,16 3.00684547,16 L14.9931545,16 C15.5500512,16 16,15.5492199 16,14.9931545 L16,3.00684547 C16,2.44994876 15.5492199,2 14.9931545,2 L3.00684547,2 C2.44994876,2 2,2.45078007 2,3.00684547 Z"></path>
  <polygon points="8 10.0857864 5.70710678 7.79289322 5 7.08578644 3.58578644 8.5 4.29289322 9.20710678 7.29289322 12.2071068 8 12.9142136 8.35355339 12.5606602 8.70710678 12.2071068 14.2297873 6.68442627 14.9368941 5.97731949 13.5226805 4.56310593 12.8155737 5.27021271"></polygon>
</svg>
