<svg width="18px" height="18px" viewBox="0 0 18 18" version="1.1" xmlns="http://www.w3.org/2000/svg" xmlns:xlink="http://www.w3.org/1999/xlink">
  <path d="M0,1.99508929 C0,0.893231902 0.892622799,0 1.99508929,0 L16.0049107,0 C17.1067681,0 18,0.892622799 18,1.99508929 L18,16.0049107 C18,17.1067681 17.1073772,18 16.0049107,18 L1.99508929,18 C0.893231902,18 0,17.1073772 0,16.0049107 L0,1.99508929 Z M2,3.00684547 L2,14.9931545 C2,15.5500512 2.45078007,16 3.00684547,16 L14.9931545,16 C15.5500512,16 16,15.5492199 16,14.9931545 L16,3.00684547 C16,2.44994876 15.5492199,2 14.9931545,2 L3.00684547,2 C2.44994876,2 2,2.45078007 2,3.00684547 Z"></path>
  <polygon points="7.58578644 9 4.05025253 12.5355339 5.46446609 13.9497475 9 10.4142136 12.5355339 13.9497475 13.9497475 12.5355339 10.4142136 9 13.9497475 5.46446609 12.5355339 4.05025253 9 7.58578644 5.46446609 4.05025253 4.05025253 5.46446609"></polygon>
</svg>
