<svg width="18px" height="18px" viewBox="0 0 18 18" version="1.1" xmlns="http://www.w3.org/2000/svg" xmlns:xlink="http://www.w3.org/1999/xlink">
  <path d="M0,1.99508929 C0,0.893231902 0.892622799,0 1.99508929,0 L16.0049107,0 C17.1067681,0 18,0.892622799 18,1.99508929 L18,16.0049107 C18,17.1067681 17.1073772,18 16.0049107,18 L1.99508929,18 C0.893231902,18 0,17.1073772 0,16.0049107 L0,1.99508929 Z M1,2.15068054 L1,15.8493194 C1,16.4857728 1.51517722,17 2.15068054,17 L15.8493194,17 C16.4857728,17 17,16.4848227 17,15.8493194 L17,2.15068054 C17,1.51422715 16.4848227,1 15.8493194,1 L2.15068054,1 C1.51422715,1 1,1.51517722 1,2.15068054 Z"></path>
  <polygon id="Shape" points="8.5 10.5900002 5 7.08578644 4.09000015 8 8.5 12.4099998 14.9368941 5.97731949 14.0200005 5.05999994"></polygon>
</svg>
