<svg width="24px" height="20px" viewBox="0 0 24 20" version="1.1" xmlns="http://www.w3.org/2000/svg" xmlns:xlink="http://www.w3.org/1999/xlink">
  <path d="M23.988,10.795 C23.964,10.707 23.949,10.655 23.926,10.604 C23.877,10.509 23.855,10.468 23.83,10.43 C23.814,10.409 23.796,10.39 23.779,10.369 C23.754,10.338 23.728,10.307 23.7,10.279 C23.694,10.274 13.6899996,1.25999999 13.6899996,1.25999999 C13.2829996,0.88699999 12.6430005,0.912999933 12.2700005,1.31999993 C11.8970005,1.72699993 11.9229999,2.36700001 12.3299999,2.74000001 L20.438,10 L1.01,10 C0.457,10 0.01,10.448 0.01,11 C0.01,11.553 0.457,12 1.01,12 L20.439,12 L12.3400002,19.2600002 C11.9330002,19.6340002 11.8960005,20.2730003 12.2700005,20.6800003 C12.4660005,20.8960003 12.7390002,21 13.0100002,21 C13.2520002,21 13.4969996,20.9159998 13.6899996,20.7399998 L23.686,11.737 C23.73,11.693 23.755,11.661 23.781,11.63 C23.798,11.609 23.815,11.591 23.831,11.569 C23.856,11.531 23.878,11.491 23.898,11.45 C23.95,11.345 23.965,11.29 23.979,11.236 C24.002,11.139 24.01,11.07 24.01,11 C24.01,10.93 24.002,10.861 23.988,10.795 Z"></path>
</svg>
