<svg xmlns="http://www.w3.org/2000/svg" width="24" height="24" viewBox="0 0 24 24">
    <path d="M23 16.5v-13C23 2.122 21.878 1 20.5 1h-17A2.503 2.503 0 0 0 1 3.5v16C1 20.878 2.122 22 3.5 22H18c.142 0 .277-.06.372-.166l4.5-5c.022-.024.034-.054.05-.082.014-.022.031-.042.041-.067A.504.504 0 0 0 23 16.5zm-21 3v-16C2 2.673 2.673 2 3.5 2h17c.827 0 1.5.673 1.5 1.5V16h-4.5a.5.5 0 0 0-.5.5V21H3.5c-.827 0-1.5-.673-1.5-1.5zm16 1.252V17h3.377L18 20.752z"></path>
    <path d="M15 16H8v-4h12a.5.5 0 0 0 0-1H8V7h12a.5.5 0 0 0 0-1H8V4a.5.5 0 0 0-1 0v2H4a.5.5 0 0 0 0 1h3v4H4a.5.5 0 0 0 0 1h3v4H4a.5.5 0 0 0 0 1h3v2a.5.5 0 0 0 1 0v-2h7a.5.5 0 0 0 0-1z"></path>
</svg>
