<svg width="24px" height="21px" viewBox="0 0 24 21" version="1.1" xmlns="http://www.w3.org/2000/svg" xmlns:xlink="http://www.w3.org/1999/xlink">
  <path d="M23.3684211,2.53333333 L9.73515789,2.53333333 L7.39326316,0.1862 C7.27578947,0.0671333333 7.11536842,0 6.94736842,0 L0.631578947,0 C0.282947368,0 0,0.283733333 0,0.633333333 L0,18.3666667 C0,18.7175333 0.282947368,19 0.631578947,19 L23.3684211,19 C23.7170526,19 24,18.7175333 24,18.3666667 L24,3.16666667 C24,2.81706667 23.7170526,2.53333333 23.3684211,2.53333333 Z"></path>
  <path class="icon-project__border" d="M23.3684211,2.96515151 C23.4229447,2.96515151 23.5,3.04242088 23.5,3.16666667 L23.5,18.3666667 C23.5,18.4916332 23.4235579,18.5681818 23.3684211,18.5681818 L0.631578947,18.5681818 C0.576442124,18.5681818 0.5,18.4916332 0.5,18.3666667 L0.5,0.633333333 C0.5,0.509087551 0.577055327,0.431818182 0.631578947,0.431818182 L6.94736842,0.431818182 C6.96534372,0.431818182 6.98806815,0.441312995 7.01268476,0.466263411 L9.35638546,2.81521694 L9.50598539,2.96515151 L9.73515789,2.96515151 L23.3684211,2.96515151 Z"></path>
</svg>
