<svg width="23px" height="24px" viewBox="0 0 23 24" version="1.1" xmlns="http://www.w3.org/2000/svg" xmlns:xlink="http://www.w3.org/1999/xlink">
  <path d="M22,0 C21.447,0 21,0.448 21,1 L21,5.378 C19.228,3.75 17.018,2.599 14.657,2.117 C7.448,0.648 1.27,5.578 0.172,12.155 C-0.572,16.607 1.127,20.921 4.347,23.692 C4.769,24.055 5.399,24.004 5.757,23.588 C6.118,23.17 6.071,22.538 5.652,22.178 C2.997,19.89 1.508,16.291 2.144,12.485 C3.057,7.02 8.168,2.839 14.257,4.078 C16.337,4.501 18.279,5.536 19.81,7 L15,7 C14.447,7 14,7.448 14,8 C14,8.553 14.447,9 15,9 L22,9 C22.552,9 23,8.553 23,8 L23,1 C23,0.448 22.552,0 22,0 Z" id="Shape" fill="#000000" fill-rule="nonzero"></path>
</svg>
