<svg width="17" height="16" viewBox="0 0 17 16" xmlns="http://www.w3.org/2000/svg">
  <path d="M.777 3.41c.003-.556.318-1.32.712-1.713L2.197.99c.39-.39 1.151-.706 1.707-.705L7.57.291c.552 0 1.321.323 1.708.71l6.348 6.348c.784.784.782 2.055.01 2.827l-4.96 4.961a2.003 2.003 0 0 1-2.825-.007l-6.39-6.39c-.394-.393-.71-1.153-.706-1.717l.02-3.614zm1.838 1.02l.055 1.725c.018.541.348 1.312.736 1.701l5.17 5.17a1.001 1.001 0 0 0 1.414-.005L13.52 9.49a.99.99 0 0 0 .008-1.41L8.382 2.933c-.385-.385-1.15-.72-1.705-.741l-1.74-.07c-.56-.022-1.321.277-1.711.667l.063-.063c-.394.393-.692 1.153-.674 1.703z"></path>
  <path d="M6.123 5.484A1 1 0 1 0 4.71 4.07a1 1 0 0 0 1.414 1.414z"></path>
</svg>
