<?xml version="1.0" encoding="utf-8"?>
<!-- Generator: Adobe Illustrator 18.1.0, SVG Export Plug-In . SVG Version: 6.00 Build 0)  -->
<svg version="1.1" id="Layer_1" xmlns="http://www.w3.org/2000/svg" xmlns:xlink="http://www.w3.org/1999/xlink" x="0px" y="0px"
	 width="24px" height="24px" viewBox="0 0 24 24" enable-background="new 0 0 24 24" xml:space="preserve">
<g>
	<path d="M13.1328,23.8701L13.1328,23.8701c-0.1953,0-0.3848-0.042-0.5645-0.125c-0.1221-0.0537-0.3018-0.1328-11.9414-11.6982
		L0.4316,11.853c-0.2554-0.2563-0.4009-0.605-0.4019-0.96l-0.0459-9.5054C-0.02,0.6465,0.584,0.0337,1.3296,0.022l9.3418-0.0508
		c0.3604,0,0.7764,0.0474,1.1318,0.3989L23.5439,11.998c0.2588,0.2559,0.4014,0.5977,0.4023,0.9609s-0.1396,0.7041-0.3955,0.9619
		l-9.459,9.5488C13.8398,23.7246,13.4902,23.8701,13.1328,23.8701z M10.6714,0.9712L10.2236,0.98L1.3398,1.022
		C1.167,1.0249,0.9829,1.1606,0.9839,1.3828l0.0459,9.5068c0,0.0942,0.0396,0.1865,0.1074,0.2549l0.1948,0.1934
		c7.0039,6.959,11.3906,11.2754,11.7334,11.5449c-0.0293-0.0244,0.0176-0.0127,0.0674-0.0127c0.0908,0,0.1836-0.0391,0.248-0.1035
		l9.46-9.5508c0.0684-0.0693,0.1055-0.1592,0.1055-0.2539c0-0.0957-0.0381-0.1855-0.1055-0.2529L11.0996,1.0811
		C11.0264,1.0083,10.9399,0.9712,10.6714,0.9712z"/>
	<path d="M5.5376,7.9614c-1.3486,0-2.4458-1.0972-2.4458-2.4463c0-1.3486,1.0972-2.4458,2.4458-2.4458s2.4458,1.0972,2.4458,2.4458
		C7.9834,6.8643,6.8862,7.9614,5.5376,7.9614z M5.5376,4.0693c-0.7974,0-1.4458,0.6484-1.4458,1.4458s0.6484,1.4463,1.4458,1.4463
		s1.4458-0.6489,1.4458-1.4463S6.335,4.0693,5.5376,4.0693z"/>
</g>
<rect x="-0.0136" y="0.0001" fill="none" width="24" height="24"/>
</svg>
