<svg width="24px" height="24px" viewBox="0 0 24 24" version="1.1" xmlns="http://www.w3.org/2000/svg" xmlns:xlink="http://www.w3.org/1999/xlink">
  <polygon points="24 9 16 8 12 0 8 8 0 9 6 15 5 24 12 20 19 24 18 15"></polygon>
  <path class="icon-today__border" stroke-width="1" d="M22.9235574,9.36933579 L17.6464466,14.6464466 L17.4765201,14.8163732 L17.5030581,15.0552158 L18.3944919,23.0781198 L12.2480695,19.5658784 L12,19.4241244 L11.7519305,19.5658784 L5.60550808,23.0781198 L6.49694187,15.0552158 L6.52347994,14.8163732 L6.35355339,14.6464466 L1.07644257,9.36933579 L8.06201737,8.49613894 L8.32754287,8.46294825 L8.4472136,8.2236068 L12,1.11803399 L15.5527864,8.2236068 L15.6724571,8.46294825 L15.9379826,8.49613894 L22.9235574,9.36933579 Z"></path>
</svg>
