<?xml version="1.0" encoding="UTF-8"?>
<svg width="19px" height="21px" viewBox="0 0 19 21" version="1.1" xmlns="http://www.w3.org/2000/svg" xmlns:xlink="http://www.w3.org/1999/xlink">
  <title>trash</title>
  <path d="M18.014545,1.77635684e-15 L14,1.77635684e-15 L5,1.77635684e-15 L1.00734562,1.77635684e-15 C0.731345618,1.77635684e-15 0.507345618,0.225 0.507345618,0.5 C0.507345618,0.776 0.731345618,1 1.00734562,1 L2.2590892,19.0069946 C2.3355098,20.1063454 3.28893351,20.9975454 4.39726345,20.9975454 L15.0001975,20.9975454 C16.1046579,20.9975454 17.0442591,20.1124729 17.0995398,19.0069946 L18,1 C18.290545,1 18.514545,0.776 18.514545,0.5 C18.514545,0.225 18.290545,1.77635684e-15 18.014545,1.77635684e-15 Z M6,15.5 C6,15.777 5.776,16 5.5,16 C5.224,16 5,15.777 5,15.5 L5,4.5 C5,4.225 5.224,4 5.5,4 C5.776,4 6,4.225 6,4.501 L6,15.5 Z M10,15.5 C10,15.776 9.776,16 9.5,16 C9.224,16 9,15.777 9,15.5 L9,4.5 C9,4.225 9.224,4 9.5,4 C9.776,4 10,4.225 10,4.5 L10,15.5 Z M14,15.5 C14,15.776 13.776,16 13.5,16 C13.224,16 13,15.777 13,15.5 L13,4.5 C13,4.225 13.224,4 13.5,4 C13.776,4 14,4.225 14,4.5 L14,15.5 Z" id="Shape"></path>
</svg>
