<svg width="16px" height="16px" viewBox="0 0 16 16" version="1.1" xmlns="http://www.w3.org/2000/svg" xmlns:xlink="http://www.w3.org/1999/xlink">
  <path d="M0,1.99406028 C0,0.892771196 0.894513756,0 1.99406028,0 L14.0059397,0 C15.1072288,0 16,0.894513756 16,1.99406028 L16,14.0059397 C16,15.1072288 15.1054862,16 14.0059397,16 L1.99406028,16 C0.892771196,16 0,15.1054862 0,14.0059397 L0,1.99406028 Z M2,4.0085302 L2,11.9914698 C2,13.0980496 2.8992496,14 4.0085302,14 L11.9914698,14 C13.0980496,14 14,13.1007504 14,11.9914698 L14,4.0085302 C14,2.90195036 13.1007504,2 11.9914698,2 L4.0085302,2 C2.90195036,2 2,2.8992496 2,4.0085302 Z"></path>
</svg>
