<svg width="21px" height="19px" viewBox="0 0 21 19" version="1.1" xmlns="http://www.w3.org/2000/svg" xmlns:xlink="http://www.w3.org/1999/xlink">
  <path d="M4,9 C4,8.44771525 4.44266033,8 4.99895656,8 L6.00104344,8 C6.55275191,8 7,8.44386482 7,9 L7,9 C7,9.55228475 6.55733967,10 6.00104344,10 L4.99895656,10 C4.44724809,10 4,9.55613518 4,9 L4,9 Z M4,12 C4,11.4477153 4.44266033,11 4.99895656,11 L6.00104344,11 C6.55275191,11 7,11.4438648 7,12 L7,12 C7,12.5522847 6.55733967,13 6.00104344,13 L4.99895656,13 C4.44724809,13 4,12.5561352 4,12 L4,12 Z M4,15 C4,14.4477153 4.44266033,14 4.99895656,14 L6.00104344,14 C6.55275191,14 7,14.4438648 7,15 L7,15 C7,15.5522847 6.55733967,16 6.00104344,16 L4.99895656,16 C4.44724809,16 4,15.5561352 4,15 L4,15 Z M9,9 C9,8.44771525 9.44266033,8 9.99895656,8 L11.0010434,8 C11.5527519,8 12,8.44386482 12,9 L12,9 C12,9.55228475 11.5573397,10 11.0010434,10 L9.99895656,10 C9.44724809,10 9,9.55613518 9,9 L9,9 Z M9,12 C9,11.4477153 9.44266033,11 9.99895656,11 L11.0010434,11 C11.5527519,11 12,11.4438648 12,12 L12,12 C12,12.5522847 11.5573397,13 11.0010434,13 L9.99895656,13 C9.44724809,13 9,12.5561352 9,12 L9,12 Z M9,15 C9,14.4477153 9.44266033,14 9.99895656,14 L11.0010434,14 C11.5527519,14 12,14.4438648 12,15 L12,15 C12,15.5522847 11.5573397,16 11.0010434,16 L9.99895656,16 C9.44724809,16 9,15.5561352 9,15 L9,15 Z M14,9 C14,8.44771525 14.4426603,8 14.9989566,8 L16.0010434,8 C16.5527519,8 17,8.44386482 17,9 L17,9 C17,9.55228475 16.5573397,10 16.0010434,10 L14.9989566,10 C14.4472481,10 14,9.55613518 14,9 L14,9 Z M14,12 C14,11.4477153 14.4426603,11 14.9989566,11 L16.0010434,11 C16.5527519,11 17,11.4438648 17,12 L17,12 C17,12.5522847 16.5573397,13 16.0010434,13 L14.9989566,13 C14.4472481,13 14,12.5561352 14,12 L14,12 Z M14,15 C14,14.4477153 14.4426603,14 14.9989566,14 L16.0010434,14 C16.5527519,14 17,14.4438648 17,15 L17,15 C17,15.5522847 16.5573397,16 16.0010434,16 L14.9989566,16 C14.4472481,16 14,15.5561352 14,15 L14,15 Z"></path>
  <path d="M0,3.79926847 C0,1.70099044 1.79044819,0 3.99936922,0 L17.0006308,0 C19.2094214,0 21,1.70284427 21,3.79926847 L21,16.155508 C21,17.7264776 19.6544098,19 17.991212,19 L3.00878799,19 C1.34708027,19 0,17.7238536 0,16.155508 L0,3.79926847 Z M1,6 L1,15.9914698 C1,17.0980496 1.89427625,18 2.99742191,18 L18.0025781,18 C19.1090746,18 20,17.1007504 20,15.9914698 L20,6 L1,6 Z"></path>
  <path d="M1,3 C1,1.8954305 2.11760258,1 3.50345613,1 L17.4965439,1 C18.8791645,1 20,1.88772965 20,3 L20,5 L1,5 L1,3 Z" fill="#FFFFFF" opacity="0.2"></path>
  <rect fill="#FFFFFF" opacity="0.7" x="4" y="2" width="2" height="2" rx="1"></rect>
  <rect fill="#FFFFFF" opacity="0.7" x="15" y="2" width="2" height="2" rx="1"></rect>
</svg>
